<svg id="Layer_1" xmlns="http://www.w3.org/2000/svg" viewBox="0 0 200.18 42.93"><defs><style>.cls-2{fill:#fff}.cls-3{fill:#ffe320}.cls-4{fill:#562100}</style></defs><path class="cls-2" d="M28.9 22.46c0 6.61-7.8 14.63-13.6 18.46C9.5 37.09 1.7 29.07 1.7 22.46V2.47h27.21v19.99zM.85 1.62v20.83c0 7.19 8.3 15.57 14.45 19.48 6.15-3.9 14.45-12.29 14.45-19.48V1.62H.85z"/><path class="cls-2" d="M11.46 33.96c-1.22-.66-2.67-1.11-4.22-1.01.29.34.58.68.88 1.01h3.34zM19.14 33.96h3.34c.3-.33.59-.67.88-1.01-1.55-.1-3 .36-4.22 1.01zM24.77 22.39h-.8v9.8c.27-.34.54-.67.8-1.02v-8.79zM6.62 22.39h-.8v8.79c.25.35.53.68.8 1.02v-9.8z"/><path class="cls-2" d="M11.65 26.07c0-.59.48-1.94 1.79-1.94s1.86 1.06 1.86 1.06.55-1.06 1.86-1.06 1.79 1.35 1.79 1.94c0 1.91-3.65 3.99-3.65 4.53 0-.55-3.65-2.63-3.65-4.53zm3.46 5.3h.38v4.26c1.36-1.35 4.19-3.65 7.63-3.56v-11.2c-.74-.06-1.87-.15-2.75-.15-3.14 0-4.45 1.24-4.46 1.25 0 0-.36.38-.36 1.73h-.5c0-1.35-.36-1.73-.36-1.73-.01-.01-1.32-1.25-4.46-1.25-.88 0-2.02.09-2.75.15v11.2c3.44-.08 6.27 2.22 7.63 3.56v-4.26z"/><path class="cls-3" d="M27.83 19.38s.52-.72.52-1.51c0-1.15-1.35-2.9-3.42-2.9-.51 0-1.03.1-1.53.26l4.17-6.5L20.76 13c.06-.88 0-1.71.54-2.28.55-.57 1.71-.52 1.71-.52s-.14-.82-.71-1.37c-.83-.79-3.03-1.02-4.46.48-.33.35-.6.76-.83 1.21l-1.72-7.48-1.93 8.39c-.59-.63-1.21-1.15-1.25-1.93-.04-.8.81-1.6.81-1.6s-.7-.46-1.49-.42c-1.15.06-2.83 1.5-2.72 3.56.03.49.14.99.31 1.46L3 8.73l4.6 7.17c-1.12-.03-2.11.38-2.9-.18-.64-.46-.7-1.65-.7-1.65s-.85.28-1.3.92c-.67.94-.6 3.15 1.09 4.35.8.57 1.84.86 2.81 1.01v-.26s1.34-.15 2.63-.21c.02-.15.03-.3.05-.44-1.38.13-3.39.11-4.52-.69-1.47-1.05-1.26-2.47-1.26-2.47s.21.37.57.63c1.67 1.19 3.27-.39 4.81.71.33.23.55.5.7.71.13-.35.29-.68.48-.99l-3.68-5.05 4.91 3.57c.25-.22.52-.42.8-.59-.5-.46-2.2-2.45-2.2-3.96 0-1.8 1.15-2.35 1.15-2.35s-.16.4-.14.84c.11 2.05 2.3 2.17 2.39 4.06.02.33-.03.62-.09.86.34-.12.68-.21 1.04-.27L15.26 8l1.02 6.45c.33.05.65.14.96.24-.03-.92.18-2.99 1.29-4.23 1.13-1.26 2.49-.82 2.49-.82s-.39.16-.7.48c-1.41 1.48.05 3.25-1.25 4.62-.22.23-.44.4-.64.51.3.18.58.38.84.61l4.91-3.57-3.68 5.05c.16.27.3.55.41.84.71-.74 2.06-1.89 3.67-1.89 1.8 0 2.47 1.33 2.47 1.33s-.38-.18-.83-.18c-2.05 0-2.48 2.18-4.37 2.18-.21 0-.4-.02-.56-.06.02.1.01.21.02.32.94.04 1.9.13 2.36.18.99-.62 1.61-1.61 2.61-1.61.8 0 1.53.94 1.53.94v-.02zM23.98 21.73h1.45v8.51c1.73-2.56 2.9-5.27 2.9-7.78v-1.77h-4.36v1.04zM2.26 22.45c0 2.52 1.17 5.22 2.9 7.78v-8.51h1.45v-1.04H2.26v1.77z"/><path class="cls-3" d="M15.3 21.35s.31-.32 1-.66c.77-.39 2.04-.81 3.87-.83-.29-2.44-2.36-4.33-4.88-4.33s-4.59 1.9-4.88 4.33c1.84.03 3.1.45 3.87.83.69.35 1 .66 1 .66h.01zM15.3 37.1s-1.07-1.33-2.77-2.49h-3.8c2.19 2.29 4.58 4.27 6.57 5.62 1.99-1.35 4.38-3.33 6.57-5.62h-3.8c-1.7 1.16-2.77 2.49-2.77 2.49z"/><path d="M17.16 24.13c-1.31 0-1.86 1.06-1.86 1.06s-.55-1.06-1.86-1.06-1.79 1.35-1.79 1.94c0 1.91 3.65 3.99 3.65 4.53 0-.55 3.65-2.63 3.65-4.53 0-.58-.48-1.94-1.79-1.94z" fill="#f0493e"/><path class="cls-4" d="M.85 1.62h28.91v20.83c0 7.19-8.3 15.57-14.45 19.48C9.15 38.03.85 29.64.85 22.46V1.62zM0 22.46c0 8 9.53 16.96 15.3 20.47 5.76-3.52 15.3-12.47 15.3-20.48V.77H0v21.69z"/><path class="cls-4" d="M12.53 34.61c1.7 1.16 2.77 2.49 2.77 2.49s1.07-1.33 2.77-2.49h3.8c-2.19 2.29-4.58 4.27-6.57 5.62-1.99-1.35-4.38-3.33-6.57-5.62h3.8zm-5.29-1.67c1.55-.1 3 .36 4.22 1.01H8.12c-.3-.33-.59-.67-.88-1.01zM5.83 22.39h.8v9.8c-.27-.34-.54-.67-.8-1.02v-8.79zm-.66 7.85c-1.73-2.56-2.9-5.27-2.9-7.78v-1.77h4.36v1.04H5.18v8.51zM2.72 14.98c.46-.64 1.3-.92 1.3-.92s.05 1.19.7 1.65c.79.56 1.79.15 2.9.18l-4.6-7.16 6.02 3.77c-.17-.48-.29-.98-.31-1.46-.11-2.06 1.57-3.5 2.72-3.56.79-.04 1.49.42 1.49.42s-.85.81-.81 1.6c.04.77.66 1.29 1.25 1.93l1.93-8.39 1.72 7.48c.23-.44.5-.86.83-1.21 1.42-1.5 3.62-1.27 4.46-.48.57.54.71 1.37.71 1.37s-1.16-.06-1.71.52c-.55.57-.48 1.4-.54 2.28l6.81-4.27-4.17 6.5c.5-.16 1.02-.26 1.53-.26 2.07 0 3.42 1.75 3.42 2.9 0 .79-.52 1.51-.52 1.51s-.73-.94-1.53-.94c-1 0-1.63.99-2.61 1.61-.46-.04-1.42-.14-2.36-.18-.01-.11-.01-.22-.02-.32.17.03.36.06.56.06 1.89 0 2.32-2.18 4.37-2.18.44 0 .83.18.83.18s-.67-1.33-2.47-1.33c-1.6 0-2.96 1.14-3.67 1.89-.11-.29-.25-.57-.41-.84l3.68-5.05-4.91 3.57c-.26-.23-.54-.43-.84-.61.2-.12.43-.28.64-.51 1.3-1.37-.16-3.13 1.25-4.62.3-.32.7-.48.7-.48s-1.36-.44-2.49.82c-1.11 1.24-1.32 3.31-1.29 4.23-.31-.11-.63-.19-.96-.24L15.3 7.99l-1.02 6.45c-.36.06-.7.15-1.04.27.06-.23.1-.53.09-.86-.1-1.89-2.29-2.02-2.39-4.06-.02-.44.14-.84.14-.84s-1.15.55-1.15 2.35c0 1.51 1.7 3.5 2.2 3.96-.28.17-.55.37-.8.59l-4.91-3.57 3.68 5.05c-.19.31-.35.64-.48.99-.15-.21-.37-.48-.7-.71-1.54-1.1-3.14.48-4.81-.71-.36-.26-.57-.63-.57-.63s-.2 1.42 1.26 2.47c1.13.81 3.14.82 4.52.69-.02.15-.04.29-.05.44-1.29.06-2.63.21-2.63.21v.26c-.97-.15-2.02-.44-2.81-1.01-1.68-1.2-1.76-3.41-1.09-4.35h-.01zm25.62 7.48c0 2.52-1.17 5.22-2.9 7.78v-8.51h-1.45v-1.04h4.36v1.77zm-3.56 8.72c-.25.35-.53.68-.8 1.02v-9.8h.8v8.79zM10.43 19.86c.29-2.44 2.36-4.33 4.88-4.33s4.59 1.9 4.88 4.33c-1.84.03-3.1.45-3.87.83-.68.35-1 .66-1 .66s-.31-.32-1-.66c-.77-.39-2.04-.81-3.87-.83h-.01zm4.68 11.52v4.26c-1.36-1.35-4.19-3.65-7.63-3.56v-11.2c.74-.06 1.87-.15 2.75-.15 3.14 0 4.45 1.24 4.46 1.25 0 0 .36.38.36 1.73h.5c0-1.35.36-1.73.36-1.73.01-.01 1.32-1.25 4.46-1.25.88 0 2.02.09 2.75.15v11.2c-3.44-.08-6.27 2.22-7.63 3.56v-4.26h-.38zm7.37 2.58h-3.34c1.22-.66 2.67-1.11 4.22-1.01-.29.34-.58.68-.88 1.01zm-7.18 6.97c5.8-3.84 13.6-11.85 13.6-18.46V2.46H1.7v19.99c0 6.61 7.8 14.63 13.6 18.46z"/><path class="cls-2" d="M47.16 26.12c1.11.28 2.25.31 3.32.31 3.23 0 8.05-.12 8.72-.75.4-.36.63-1.7.83-2.52l.47-1.97h1.26c-.24 2.17-.51 4.82-.83 6.79-1.5.04-4.03.12-6.55.12h-1.22c-3.55-.04-6.16-.12-8.6-.12-1.34 0-2.33.08-3.35.12v-.9l1.22-.63c.67-.36.99-1.26.99-2.33V5.52c0-1.5-.08-2.52-.36-2.96-.24-.4-.71-.55-1.66-.59l-1.9-.12V.67c2.05.08 3.91.12 5.84.12 1.81 0 3.67-.04 5.72-.12v1.18l-1.9.12c-.95.04-1.42.19-1.66.59-.28.43-.36 1.46-.36 2.96v20.61h.01zM67.48 5.52c0-1.5-.08-2.52-.36-2.96-.24-.4-.71-.55-1.66-.59l-1.9-.12V.67c1.11 0 2.21.04 3.32.08 1.11 0 2.25.04 3.35.04 3.43 0 7.06-.12 9.31-.12 1.78 0 3.55.04 5.09.12-.43 1.74-.63 3.99-.63 6h-1.38V4.23c0-.51-.04-.95-.36-1.07-2.09-.79-5.21-.83-7.74-.83-1.07 0-2.21.04-3.32.31v10.54c1.26.08 2.68.12 4.58.12 2.41 0 3.75-.16 4.18-.43.2-.16.28-.51.31-1.02l.2-2.05h1.19c-.04 1.62-.12 3.12-.12 4.58s.08 2.96.12 4.38h-1.19l-.2-2.33c-.04-.51-.12-.87-.31-.99-.43-.31-1.78-.47-4.18-.47-1.9 0-3.35 0-4.58.12v11.05c1.11.28 2.25.31 3.32.31 3.23 0 7.26-.12 7.97-.51.59-.31 1.11-2.05 1.38-4.42h1.38c-.4 1.9-.63 4.34-.63 6.47-1.5.04-4.03.12-6.55.12h-1.22c-3.04-.04-6.16-.12-8.6-.12-1.5 0-2.8.08-4.23.12v-1.18l1.42-.12c.95-.08 1.42-.2 1.66-.59.28-.43.36-1.46.36-2.96V5.52h.01zM115.36 23.24c0 1.5.08 2.52.35 2.96.24.4.71.55 1.66.59l1.9.12v1.18c-2.05-.08-3.91-.12-5.72-.12-1.93 0-3.79.04-5.84.12v-1.18l1.9-.12c.95-.04 1.42-.19 1.66-.59.28-.43.36-1.46.36-2.96v-8.8c-.47-.04-1.54-.08-3.28-.08h-9.24c-1.74 0-2.8.04-3.28.08v8.8c0 1.5.08 2.52.36 2.96.24.4.71.55 1.66.59l1.9.12v1.18c-2.05-.08-3.91-.12-5.72-.12-1.93 0-3.79.04-5.84.12v-1.18l1.9-.12c.95-.04 1.42-.19 1.66-.59.28-.43.36-1.46.36-2.96V5.52c0-1.5-.08-2.52-.36-2.96-.24-.4-.71-.55-1.66-.59l-1.9-.12V.67c2.05.08 3.91.12 5.84.12 1.81 0 3.67-.04 5.72-.12v1.18l-1.9.12c-.95.04-1.42.2-1.66.59-.28.43-.36 1.46-.36 2.96v7.03c.47.04 1.54.08 3.28.08h9.24c1.74 0 2.8-.04 3.28-.08V5.53c0-1.5-.08-2.52-.36-2.96-.24-.4-.71-.55-1.66-.59l-1.9-.12V.67c2.05.08 3.91.12 5.84.12 1.81 0 3.67-.04 5.72-.12v1.18l-1.9.12c-.95.04-1.42.2-1.66.59-.28.43-.35 1.46-.35 2.96v17.73zM130.36 23.24c0 1.5.08 2.52.36 2.96.24.4.71.55 1.66.59l1.9.12v1.18c-2.05-.08-3.91-.12-5.72-.12-1.93 0-3.79.04-5.84.12v-1.18l1.9-.12c.95-.04 1.42-.19 1.66-.59.28-.43.36-1.46.36-2.96V5.52c0-1.5-.08-2.52-.36-2.96-.24-.4-.71-.55-1.66-.59l-1.9-.12V.67c2.05.08 3.91.12 5.84.12 1.81 0 3.67-.04 5.72-.12v1.18l-1.9.12c-.95.04-1.42.2-1.66.59-.28.43-.36 1.46-.36 2.96v17.73zM159.6 20.13c0-.91-.31-1.3-1.34-1.38l-3.28-.28v-1.19c1.62.04 3.23.08 4.82.08s3.24-.04 4.85-.08l.16.99-1.14.4c-.43.16-.43.31-.43 1.46v6.63c-3.4.99-7.65 2.02-10.38 2.02-8.8 0-15.91-4.58-15.91-14.49C136.95 5.61 144.1 0 153.61 0c4.89 0 7.97 1.1 9.79 1.62-.47 1.85-.79 3.95-.79 6h-1.22V5.53c0-1.85-1.42-2.49-3.28-3.16-1.26-.43-2.96-.71-5.53-.71-7.5 0-11.41 4.94-11.41 11.96 0 7.85 4.58 13.5 12.71 13.5 3.04 0 5.29-.67 5.53-1.38.16-.43.2-.63.2-1.62v-3.99zM194.37 23.24c0 1.5.08 2.52.35 2.96.24.4.71.55 1.66.59l1.9.12v1.18c-2.05-.08-3.91-.12-5.72-.12-1.93 0-3.79.04-5.84.12v-1.18l1.9-.12c.95-.04 1.42-.19 1.66-.59.28-.43.36-1.46.36-2.96v-8.8c-.47-.04-1.54-.08-3.28-.08h-9.24c-1.74 0-2.8.04-3.28.08v8.8c0 1.5.08 2.52.36 2.96.24.4.71.55 1.66.59l1.9.12v1.18c-2.05-.08-3.91-.12-5.72-.12-1.93 0-3.79.04-5.84.12v-1.18l1.9-.12c.95-.04 1.42-.19 1.66-.59.28-.43.36-1.46.36-2.96V5.52c0-1.5-.08-2.52-.36-2.96-.24-.4-.71-.55-1.66-.59l-1.9-.12V.67c2.05.08 3.91.12 5.84.12 1.81 0 3.67-.04 5.72-.12v1.18l-1.9.12c-.95.04-1.42.2-1.66.59-.28.43-.36 1.46-.36 2.96v7.03c.48.04 1.54.08 3.28.08h9.24c1.74 0 2.8-.04 3.28-.08V5.53c0-1.5-.08-2.52-.36-2.96-.24-.4-.71-.55-1.66-.59l-1.9-.12V.67c2.05.08 3.91.12 5.84.12 1.81 0 3.67-.04 5.72-.12v1.18l-1.9.12c-.95.04-1.42.2-1.66.59-.28.43-.35 1.46-.35 2.96v17.73zM42.22 34.45c0-.44-.02-.74-.1-.87-.07-.11-.21-.16-.48-.17l-.55-.03v-.35a49.578 49.578 0 003.38 0v.35l-.55.03c-.28.01-.42.06-.48.17-.08.12-.1.43-.1.87v3.97c0 1.64.85 2.11 2.37 2.11 1.25 0 2.37-.47 2.37-2.38v-3.69c0-.44-.02-.74-.1-.87-.07-.11-.21-.15-.48-.17l-.51-.03v-.35c.46.01.92.03 1.34.03.46 0 .88-.02 1.38-.03v.35l-.51.03c-.28.02-.42.06-.48.17-.08.12-.1.43-.1.87v3.33c0 2.46-.93 3.46-3.26 3.46-1.96 0-3.11-.59-3.11-2.7v-4.09zM60.91 34.45c0-.44-.02-.74-.1-.87-.07-.11-.21-.15-.48-.17l-.51-.03v-.35c.51.01.97.03 1.38.03.21 0 .42-.02.62-.03l5.51 6.8h.03v-5.38c0-.44-.02-.74-.1-.87-.07-.11-.21-.15-.48-.17l-.51-.03v-.35c.46.01.92.03 1.34.03.46 0 .88-.02 1.38-.03v.35l-.51.03c-.28.02-.42.06-.48.17-.08.12-.1.43-.1.87v6.37c0 .14.02.29.03.43l-1.03-.18-5.43-6.74h-.02v5.31c0 .44.02.74.1.87.07.11.21.15.48.17l.51.03v.35c-.51-.01-.92-.03-1.38-.03-.42 0-.88.02-1.34.03v-.35l.51-.03c.28-.02.42-.06.48-.17.08-.12.1-.43.1-.87v-5.17zM81.41 39.62c0 .44.02.74.1.87.07.11.21.16.48.17l.55.03v.35a49.578 49.578 0 00-3.38 0v-.35l.55-.03c.28-.01.42-.06.48-.17.08-.12.1-.43.1-.87v-5.17c0-.44-.02-.74-.1-.87-.07-.11-.21-.16-.48-.17l-.55-.03v-.35a49.578 49.578 0 003.38 0v.35l-.55.03c-.28.01-.42.06-.48.17-.08.12-.1.43-.1.87v5.17zM96.95 39.61l2.11-5.45c.07-.17.1-.31.1-.42 0-.27-.18-.33-.41-.34l-.6-.03v-.35c.42.01.82.03 1.25.03s.83-.02 1.25-.03v.35l-.35.03c-.24.02-.39.28-.62.83l-2 4.85c-.28.66-.53 1.32-.74 2.02h-.57c-.18-.68-.44-1.34-.67-1.9l-2.17-5.33c-.15-.37-.31-.46-.51-.47l-.42-.03v-.35c.51.01 1.01.03 1.53.03s1.02-.02 1.53-.03v.35l-.64.03c-.18.01-.37.06-.37.23 0 .03 0 .08.02.12l2.27 5.85zM111.95 34.45c0-.44-.02-.74-.1-.87-.07-.11-.21-.16-.48-.17l-.55-.03v-.35c.33 0 .64.01.97.02.33 0 .66.01.98.01 1 0 2.06-.03 2.72-.03.52 0 1.04.01 1.49.03-.12.51-.18 1.16-.18 1.75h-.4v-.75c0-.15-.01-.28-.1-.31-.61-.23-1.52-.24-2.26-.24-.31 0-.64.01-.97.09v3.08c.37.02.79.03 1.34.03.7 0 1.09-.05 1.22-.12.06-.05.08-.15.09-.3l.06-.6h.35c-.01.47-.03.91-.03 1.34s.02.87.03 1.28h-.35l-.06-.68c-.01-.15-.03-.25-.09-.29-.12-.09-.52-.14-1.22-.14-.55 0-.98 0-1.34.03v3.23c.33.08.66.09.97.09.94 0 2.12-.03 2.33-.15.17-.09.33-.6.41-1.29h.4c-.11.55-.18 1.27-.18 1.89-.44.01-1.18.03-1.91.03h-.36c-.89-.01-1.8-.03-2.51-.03-.44 0-.82.02-1.24.03v-.35l.42-.03c.28-.02.42-.06.48-.17.08-.12.1-.43.1-.87v-5.17h-.01zM129.8 39.62c0 .44.02.74.1.87.07.11.21.16.48.17l.55.03v.35a49.578 49.578 0 00-3.38 0v-.35l.55-.03c.28-.01.42-.06.48-.17.08-.12.1-.43.1-.87v-5.17c0-.44-.02-.74-.1-.87-.07-.11-.21-.15-.48-.17l-.47-.03v-.35c.61.01 1.28.03 1.96.03s1.35-.02 2.02-.03h.1c1.77 0 2.23.91 2.23 1.73 0 1.26-1.13 2-2.25 2.23l2.62 3.41c.17.23.43.28.7.3v.35c-.3-.01-.56-.03-.83-.03s-.52.02-.79.03c-.15-.22-.33-.42-.47-.62l-2.12-2.85c-.18-.25-.4-.47-.6-.72l.07-.14a4.225 4.225 0 001.01-.05c.81-.14 1.5-.76 1.5-1.61 0-1.25-.92-1.59-1.82-1.59-.52 0-.85.06-1.18.14v6.02zM149.51 34.94l-.07-.66c-.03-.31-.08-.43-.51-.69-.33-.2-.81-.28-1.26-.28-.81 0-1.71.54-1.71 1.68 0 .79.46 1.27 1.9 1.43 1.63.17 2.65.57 2.65 1.89 0 1.97-1.77 2.91-3.48 2.91-.81 0-1.59-.25-1.97-.44.07-.44.08-.9.08-1.33v-.44h.37l.09.77c.06.48.97.92 1.88.92 1.04 0 2.06-.63 2.06-1.78s-.85-1.41-2.03-1.54c-1.81-.21-2.52-.77-2.52-1.97 0-1.79 1.57-2.61 2.95-2.61.92 0 1.61.3 2.09.48-.11.58-.16 1.08-.16 1.62h-.37zM162.98 39.62c0 .44.02.74.1.87.07.11.21.16.48.17l.55.03v.35a49.578 49.578 0 00-3.38 0v-.35l.55-.03c.28-.01.42-.06.48-.17.08-.12.1-.43.1-.87v-5.17c0-.44-.02-.74-.1-.87-.07-.11-.21-.16-.48-.17l-.55-.03v-.35a49.578 49.578 0 003.38 0v.35l-.55.03c-.28.01-.42.06-.48.17-.08.12-.1.43-.1.87v5.17zM177.08 34.75c0-.44-.01-.81-.05-1.15h-1.79c-.35 0-.44.1-.46.38l-.04.91h-.36c0-.62-.02-1.26-.08-1.86.83 0 1.66.03 2.49.03h1.67c.42 0 .83-.01 1.25-.02.42 0 .83-.01 1.25-.01-.06.6-.08 1.24-.08 1.86h-.36l-.04-.91c-.02-.28-.11-.38-.46-.38h-1.79c-.03.35-.05.72-.05 1.15v4.88c0 .44.02.74.1.87.07.11.21.16.48.17l.55.03v.35a49.578 49.578 0 00-3.38 0v-.35l.55-.03c.28-.01.42-.06.48-.17.08-.12.1-.43.1-.87v-4.88zM195.06 37.08l1.19-1.88c.46-.73.87-1.45 1.25-2.19h.92v.17c-.97 1.12-2.36 3.07-2.83 4.09-.14.3-.16.59-.16.87v1.49c0 .44.02.74.1.87.07.11.21.16.48.17l.55.03v.35a49.578 49.578 0 00-3.38 0v-.35l.55-.03c.28-.01.42-.06.48-.17.08-.12.1-.43.1-.87v-1.64c0-.18-.03-.35-.1-.46l-1.43-2.49c-.6-1.03-1.19-1.46-1.47-1.5l-.34-.03v-.34l1.33-.28s.03-.01.06-.01c.21 0 .36.22.54.44.2.24.36.47.51.75l1.65 3.01z"/></svg>