<?xml version="1.0" encoding="UTF-8"?><svg id="Layer_1" xmlns="http://www.w3.org/2000/svg" xmlns:xlink="http://www.w3.org/1999/xlink" viewBox="0 0 1920 1080"><defs><style>.cls-1{fill:url(#Rocky_Rapids_Gradient_Bg);}.cls-1,.cls-2{stroke-width:0px;}.cls-2{fill:#c0d7e8;}</style><linearGradient id="Rocky_Rapids_Gradient_Bg" x1="0" y1="540" x2="1920" y2="540" gradientUnits="userSpaceOnUse"><stop offset="0" stop-color="#d9e7f1"/><stop offset=".41" stop-color="#f9fbfd"/><stop offset=".64" stop-color="#f9fbfd"/><stop offset="1" stop-color="#d9e7f1"/></linearGradient></defs><rect class="cls-1" width="1920" height="1080"/><path class="cls-2" d="m764.06,669.44v-262.5c0-6.02,4.92-10.94,10.94-10.94h109.38v54.69c0,12.1,9.78,21.88,21.88,21.88h54.69v98.44h32.81v-102.2c0-11.62-4.58-22.76-12.78-30.97l-61.87-61.87c-8.2-8.2-19.35-12.78-30.97-12.78h-113.13c-24.13,0-43.75,19.62-43.75,43.75v262.5c0,24.13,19.62,43.75,43.75,43.75h32.81v-32.81h-32.81c-6.02,0-10.94-4.92-10.94-10.94Z"/><path class="cls-2" d="m886.96,610.83c-27.74,0-44.84,18.89-44.94,52.5-.1,33.56,17.2,53.44,44.94,53.49,27.69.05,44.89-19.79,44.94-53.49.05-33.51-17.25-52.5-44.94-52.5Zm0,83.52c-9.54,0-16.41-9.59-16.31-31.02.1-20.93,6.76-30.23,16.31-30.23s16.26,9.3,16.31,30.23c.05,21.43-6.76,31.02-16.31,31.02Z"/><polygon class="cls-2" points="951.23 627.53 951.23 650.99 973.51 637.67 974.1 637.67 974.1 714.03 1001.74 714.03 1001.74 612.22 976.29 612.22 951.23 627.53"/><path class="cls-2" d="m1073.97,610.83c-27.74,0-44.84,18.89-44.94,52.5-.1,33.56,17.2,53.44,44.94,53.49,27.69.05,44.89-19.79,44.94-53.49.05-33.51-17.25-52.5-44.94-52.5Zm0,83.52c-9.54,0-16.41-9.59-16.31-31.02.1-20.93,6.76-30.23,16.31-30.23s16.26,9.3,16.31,30.23c.05,21.43-6.76,31.02-16.31,31.02Z"/><polygon class="cls-2" points="1163.3 612.22 1138.24 627.53 1138.24 650.99 1160.51 637.67 1161.11 637.67 1161.11 714.03 1188.75 714.03 1188.75 612.22 1163.3 612.22"/></svg>