<?xml version="1.0" encoding="UTF-8"?><svg id="Layer_1" xmlns="http://www.w3.org/2000/svg" xmlns:xlink="http://www.w3.org/1999/xlink" viewBox="0 0 1920 1080"><defs><style>.cls-1{fill:url(#linear-gradient);}.cls-1,.cls-2{stroke-width:0px;}.cls-2{fill:#d1949e;}</style><linearGradient id="linear-gradient" x1="0" y1="540" x2="1920" y2="540" gradientUnits="userSpaceOnUse"><stop offset="0" stop-color="#e3bfc5"/><stop offset=".41" stop-color="#faf4f5"/><stop offset=".64" stop-color="#faf4f5"/><stop offset="1" stop-color="#e3bfc5"/></linearGradient></defs><rect class="cls-1" width="1920" height="1080"/><path class="cls-2" d="m760.51,550.43h-170.71c-25.36,0-46,20.64-46,46v170.71c0,25.36,20.64,46,46,46h170.71c25.36,0,46-20.64,46-46v-170.71c0-25.36-20.64-46-46-46Zm16,216.71c0,8.82-7.18,16-16,16h-170.71c-8.82,0-16-7.18-16-16v-170.71c0-8.82,7.18-16,16-16h170.71c8.82,0,16,7.18,16,16v170.71Z"/><path class="cls-2" d="m1330.19,266.86h-170.71c-25.36,0-46,20.64-46,46v170.71c0,25.36,20.64,46,46,46h170.71c25.36,0,46-20.64,46-46v-170.71c0-25.36-20.64-46-46-46Zm16,216.71c0,8.82-7.18,16-16,16h-170.71c-8.82,0-16-7.18-16-16v-170.71c0-8.82,7.18-16,16-16h170.71c8.82,0,16,7.18,16,16v170.71Z"/><path class="cls-2" d="m1045.35,266.86h-170.71c-25.36,0-46,20.64-46,46v170.71c0,25.36,20.64,46,46,46h170.71c25.36,0,46-20.64,46-46v-170.71c0-25.36-20.64-46-46-46Zm16,216.71c0,8.82-7.18,16-16,16h-170.71c-8.82,0-16-7.18-16-16v-170.71c0-8.82,7.18-16,16-16h170.71c8.82,0,16,7.18,16,16v170.71Z"/><path class="cls-2" d="m1330.19,550.43h-170.71c-25.36,0-46,20.64-46,46v170.71c0,25.36,20.64,46,46,46h170.71c25.36,0,46-20.64,46-46v-170.71c0-25.36-20.64-46-46-46Zm16,216.71c0,8.82-7.18,16-16,16h-170.71c-8.82,0-16-7.18-16-16v-170.71c0-8.82,7.18-16,16-16h170.71c8.82,0,16,7.18,16,16v170.71Z"/><path class="cls-2" d="m760.51,266.86h-170.71c-25.36,0-46,20.64-46,46v170.71c0,25.36,20.64,46,46,46h170.71c25.36,0,46-20.64,46-46v-170.71c0-25.36-20.64-46-46-46Zm16,216.71c0,8.82-7.18,16-16,16h-170.71c-8.82,0-16-7.18-16-16v-170.71c0-8.82,7.18-16,16-16h170.71c8.82,0,16,7.18,16,16v170.71Z"/><path class="cls-2" d="m1045.35,550.43h-170.71c-25.36,0-46,20.64-46,46v170.71c0,25.36,20.64,46,46,46h170.71c25.36,0,46-20.64,46-46v-170.71c0-25.36-20.64-46-46-46Zm16,216.71c0,8.82-7.18,16-16,16h-170.71c-8.82,0-16-7.18-16-16v-170.71c0-8.82,7.18-16,16-16h170.71c8.82,0,16,7.18,16,16v170.71Z"/></svg>