<?xml version="1.0" encoding="UTF-8"?><svg id="Layer_1" xmlns="http://www.w3.org/2000/svg" xmlns:xlink="http://www.w3.org/1999/xlink" viewBox="0 0 1920 1080"><defs><style>.cls-1{fill:url(#Rocky_Rapids_Gradient_Bg);}.cls-1,.cls-2{stroke-width:0px;}.cls-2{fill:#c0d7e8;}</style><linearGradient id="Rocky_Rapids_Gradient_Bg" x1="0" y1="540" x2="1920" y2="540" gradientUnits="userSpaceOnUse"><stop offset="0" stop-color="#d9e7f1"/><stop offset=".41" stop-color="#f9fbfd"/><stop offset=".64" stop-color="#f9fbfd"/><stop offset="1" stop-color="#d9e7f1"/></linearGradient></defs><rect class="cls-1" width="1920" height="1080"/><path class="cls-2" d="m796.81,671.25v-262.5c0-6.02,4.92-10.94,10.94-10.94h109.38v54.69c0,12.1,9.78,21.88,21.88,21.88h54.69v98.44h32.81v-102.2c0-11.62-4.58-22.76-12.78-30.97l-61.87-61.87c-8.2-8.2-19.35-12.78-30.97-12.78h-113.13c-24.13,0-43.75,19.62-43.75,43.75v262.5c0,24.13,19.62,43.75,43.75,43.75h32.81v-32.81h-32.81c-6.02,0-10.94-4.92-10.94-10.94Z"/><path class="cls-2" d="m919.88,610.06h-43.95v101.81h27.64v-30.23h15.31c23.22,0,38.78-13.67,38.78-35.59s-15.16-35.99-37.78-35.99Zm-6.56,50.11h-9.74v-28.04h9.74c9.69,0,15.51,5.17,15.51,13.92s-5.82,14.12-15.51,14.12Z"/><path class="cls-2" d="m1013.58,610.06h-38.78v101.81h39.17c31.02,0,50.71-19.09,50.71-50.91s-19.69-50.91-51.1-50.91Zm-.6,78.35h-10.54v-54.88h9.74c15.91,0,24.66,6.16,24.66,27.44s-8.75,27.44-23.86,27.44Z"/><polygon class="cls-2" points="1156 632.33 1156 610.06 1084.42 610.06 1084.42 711.87 1112.06 711.87 1112.06 672.1 1151.63 672.1 1151.63 649.83 1112.06 649.83 1112.06 632.33 1156 632.33"/></svg>