<?xml version="1.0" encoding="UTF-8"?><svg id="Layer_1" xmlns="http://www.w3.org/2000/svg" xmlns:xlink="http://www.w3.org/1999/xlink" viewBox="0 0 1920 1080"><defs><style>.cls-1{fill:url(#Rocky_Rapids_Gradient_Bg);}.cls-1,.cls-2{stroke-width:0px;}.cls-2{fill:#c0d7e8;}</style><linearGradient id="Rocky_Rapids_Gradient_Bg" x1="0" y1="540" x2="1920" y2="540" gradientUnits="userSpaceOnUse"><stop offset="0" stop-color="#d9e7f1"/><stop offset=".41" stop-color="#f9fbfd"/><stop offset=".64" stop-color="#f9fbfd"/><stop offset="1" stop-color="#d9e7f1"/></linearGradient></defs><rect class="cls-1" width="1920" height="1080"/><path class="cls-2" d="m1047.5,682.19c6.02,0,10.94-4.92,10.94-10.94v-196.88h-54.69c-12.1,0-21.88-9.78-21.88-21.88v-54.69h-109.38c-6.02,0-10.94,4.92-10.94,10.94v262.5c0,6.02,4.92,10.94,10.94,10.94h175Zm-218.75-273.44c0-24.13,19.62-43.75,43.75-43.75h113.13c11.62,0,22.76,4.58,30.97,12.78l61.87,61.87c8.2,8.2,12.78,19.35,12.78,30.97v200.63c0,24.13-19.62,43.75-43.75,43.75h-175c-24.13,0-43.75-19.62-43.75-43.75v-262.5Z"/></svg>