<?xml version="1.0" encoding="UTF-8"?><svg id="Layer_1" xmlns="http://www.w3.org/2000/svg" xmlns:xlink="http://www.w3.org/1999/xlink" viewBox="0 0 1920 1080"><defs><style>.cls-1{fill:url(#Rocky_Rapids_Gradient_Bg);}.cls-1,.cls-2{stroke-width:0px;}.cls-2{fill:#c0d7e8;}</style><linearGradient id="Rocky_Rapids_Gradient_Bg" x1="0" y1="540" x2="1920" y2="540" gradientUnits="userSpaceOnUse"><stop offset="0" stop-color="#d9e7f1"/><stop offset=".41" stop-color="#f9fbfd"/><stop offset=".64" stop-color="#f9fbfd"/><stop offset="1" stop-color="#d9e7f1"/></linearGradient></defs><rect class="cls-1" width="1920" height="1080"/><path class="cls-2" d="m697.5,423.33c0-32.17,26.16-58.33,58.33-58.33h233.33c32.17,0,58.33,26.16,58.33,58.33v233.33c0,32.17-26.16,58.33-58.33,58.33h-233.33c-32.17,0-58.33-26.16-58.33-58.33v-233.33Zm509.6-25.7c9.48,5.1,15.4,14.95,15.4,25.7v233.33c0,10.76-5.92,20.6-15.4,25.7-9.48,5.1-20.96,4.56-29.99-1.46l-87.5-58.33-12.94-8.66v-147.84l12.94-8.66,87.5-58.33c8.93-5.92,20.42-6.56,29.99-1.46Z"/></svg>