<svg xmlns="http://www.w3.org/2000/svg" viewBox="0 0 24.68 20"><path d="M11.1 15.46c-1.09-.01-1.94-.25-2.57-.71-.63-.46-.95-1.18-.95-2.12v-2.6c0-.6-.19-1.03-.56-1.28-.37-.25-.91-.38-1.6-.38V7.08c.7-.01 1.23-.14 1.6-.39s.56-.67.56-1.26V2.81c0-.94.32-1.65.97-2.11.65-.46 1.49-.69 2.53-.69v1.28c-.61.02-1.1.16-1.44.42s-.52.67-.52 1.25v2.55c0 1.22-.64 1.94-1.93 2.16v.11c1.29.22 1.93.94 1.93 2.16v2.6c0 .58.18 1.01.53 1.26.34.25.83.39 1.45.4v1.28zm11.93-2.02h-5.21c-.19 1.03-.75 1.64-1.24 1.99-.79.56-1.8.84-3 .84h-.81v-2.83h-.87v2.84h-.82c-1.25-.02-2.28-.31-3.04-.88-.65-.47-1.05-1.13-1.2-1.96H1.66c-.91 0-1.65.74-1.65 1.64v3.27c-.01.9.73 1.64 1.63 1.64h21.38c.9 0 1.64-.74 1.64-1.64v-3.27c.01-.9-.73-1.64-1.63-1.64zm-3.05 5.34c-.45 0-.82-.37-.82-.82s.37-.82.82-.82.82.37.82.82-.37.82-.82.82zm2.47 0c-.45 0-.82-.37-.82-.82s.37-.82.82-.82.82.37.82.82-.37.82-.82.82zm-8.86-3.32v-1.28c.61-.02 1.09-.16 1.44-.42.35-.25.51-.68.51-1.26V9.93c0-1.22.64-1.94 1.93-2.16v-.11c-1.29-.22-1.93-.94-1.93-2.16V2.91c0-.58-.17-.99-.51-1.25-.34-.25-.83-.39-1.45-.4V0c1.09.01 1.94.25 2.57.71.63.46.94 1.16.94 2.11v2.59c0 .6.19 1.03.56 1.28s.91.38 1.6.38v1.29c-.7.01-1.23.14-1.6.39s-.56.67-.56 1.26v2.64c0 .94-.31 1.66-.96 2.12-.65.46-1.49.69-2.53.69z" fill="#2b5870" stroke-width="0"/></svg>