<svg id="Layer_1" xmlns="http://www.w3.org/2000/svg" viewBox="0 0 52.51 41"><defs><style>.cls-1{fill:#fff;stroke-width:0}</style></defs><path class="cls-1" d="M1.6 6.53h14.37c.5 2.19 2.46 3.84 4.8 3.84s4.3-1.64 4.8-3.84H50.9c.61 0 1.1-.49 1.1-1.1s-.49-1.1-1.1-1.1H25.57c-.5-2.19-2.46-3.84-4.8-3.84s-4.3 1.64-4.8 3.84H1.6c-.61 0-1.1.49-1.1 1.1s.49 1.1 1.1 1.1zm19.18-3.84c1.51 0 2.74 1.23 2.74 2.74s-1.23 2.74-2.74 2.74-2.74-1.23-2.74-2.74 1.23-2.74 2.74-2.74zM50.91 19.4h-8.89c-.5-2.19-2.46-3.84-4.8-3.84s-4.3 1.64-4.8 3.84H1.6c-.61 0-1.1.49-1.1 1.1s.49 1.1 1.1 1.1h30.81c.5 2.19 2.46 3.84 4.8 3.84s4.3-1.64 4.8-3.84h8.89c.61 0 1.1-.49 1.1-1.1s-.49-1.1-1.1-1.1zm-13.7 3.84c-1.51 0-2.74-1.23-2.74-2.74s1.23-2.74 2.74-2.74 2.74 1.23 2.74 2.74-1.23 2.74-2.74 2.74z"/><path class="cls-1" d="M1.6 7.03h13.99c.69 2.25 2.81 3.84 5.19 3.84s4.49-1.59 5.19-3.84h24.95c.88 0 1.6-.72 1.6-1.6s-.72-1.6-1.6-1.6H25.97c-.69-2.25-2.81-3.84-5.19-3.84s-4.49 1.59-5.19 3.84H1.6c-.88.01-1.6.72-1.6 1.6s.72 1.6 1.6 1.6zm19.18-3.84c1.23 0 2.24 1 2.24 2.24s-1 2.24-2.24 2.24-2.24-1-2.24-2.24 1-2.24 2.24-2.24zM50.91 18.9H42.4c-.69-2.25-2.81-3.84-5.19-3.84s-4.49 1.59-5.19 3.84H1.6c-.88 0-1.6.72-1.6 1.6s.72 1.6 1.6 1.6h30.43c.69 2.25 2.81 3.84 5.19 3.84s4.49-1.59 5.19-3.84h8.51c.88 0 1.6-.72 1.6-1.6s-.72-1.6-1.6-1.6zm-13.7 3.84c-1.23 0-2.24-1-2.24-2.24s1-2.24 2.24-2.24 2.24 1 2.24 2.24-1 2.24-2.24 2.24zM50.91 33.97H20.48c-.69-2.25-2.81-3.84-5.19-3.84s-4.49 1.59-5.19 3.84H1.6c-.88 0-1.6.72-1.6 1.6s.72 1.6 1.6 1.6h8.51c.69 2.25 2.81 3.84 5.19 3.84s4.49-1.59 5.19-3.84h30.43c.88 0 1.6-.72 1.6-1.6s-.72-1.6-1.6-1.6zm-35.62 3.84c-1.23 0-2.24-1-2.24-2.24s1-2.24 2.24-2.24 2.24 1 2.24 2.24-1 2.24-2.24 2.24z"/><path class="cls-1" d="M50.91 34.47H20.1c-.5-2.19-2.46-3.84-4.8-3.84s-4.3 1.64-4.8 3.84H1.6c-.61 0-1.1.49-1.1 1.1s.49 1.1 1.1 1.1h8.89c.5 2.19 2.46 3.84 4.8 3.84s4.3-1.64 4.8-3.84H50.9c.61 0 1.1-.49 1.1-1.1s-.49-1.1-1.1-1.1zm-35.62 3.84c-1.51 0-2.74-1.23-2.74-2.74s1.23-2.74 2.74-2.74 2.74 1.23 2.74 2.74-1.23 2.74-2.74 2.74z"/></svg>