<svg xmlns="http://www.w3.org/2000/svg" viewBox="0 0 50.01 50"><path d="M25.01 12.18c-7.1 0-12.82 5.72-12.82 12.82s5.72 12.82 12.82 12.82S37.83 32.1 37.83 25s-5.72-12.82-12.82-12.82zm0 21.15c-4.59 0-8.33-3.74-8.33-8.33s3.74-8.33 8.33-8.33 8.33 3.74 8.33 8.33-3.75 8.33-8.33 8.33zm16.33-21.68c0 1.66-1.34 2.99-2.99 2.99s-2.99-1.34-2.99-2.99 1.34-2.99 2.99-2.99 2.99 1.34 2.99 2.99zm8.49 3.03c-.19-4.01-1.1-7.55-4.04-10.48C42.87 1.28 39.32.36 35.31.16c-4.12-.22-16.49-.22-20.62.02-3.99.19-7.54 1.1-10.48 4.03S.38 10.67.18 14.68c-.24 4.13-.24 16.5 0 20.63.19 4.01 1.1 7.55 4.04 10.48 2.93 2.92 6.47 3.84 10.48 4.04 4.13.23 16.5.23 20.63 0 4.01-.19 7.55-1.1 10.48-4.04 2.92-2.92 3.84-6.47 4.04-10.48.23-4.13.23-16.49 0-20.62zM44.5 39.73a8.408 8.408 0 01-4.75 4.75c-3.29 1.31-11.1 1-14.74 1s-11.46.29-14.74-1a8.408 8.408 0 01-4.75-4.75c-1.31-3.29-1-11.1-1-14.74s-.29-11.46 1-14.74a8.408 8.408 0 014.75-4.75c3.29-1.31 11.1-1 14.74-1s11.46-.29 14.74 1c2.19.87 3.87 2.55 4.75 4.75 1.31 3.29 1 11.1 1 14.74s.3 11.46-1 14.74z" fill="#fadf54" stroke-width="0"/></svg>