<svg xmlns="http://www.w3.org/2000/svg" viewBox="0 0 1920 1080"><defs><linearGradient id="a" x1="0" y1="540" x2="1920" y2="540" gradientUnits="userSpaceOnUse"><stop offset="0" stop-color="#d9e7f1"/><stop offset=".41" stop-color="#f9fbfd"/><stop offset=".64" stop-color="#f9fbfd"/><stop offset="1" stop-color="#d9e7f1"/></linearGradient></defs><path stroke-width="0" fill="url(#a)" d="M0 0h1920v1080H0z"/><path d="M1128.53 369.17c49.61 40.29 81.34 101.9 81.34 170.86s-31.72 130.49-81.34 170.86c-7.87 6.42-19.42 5.2-25.84-2.68-6.42-7.87-5.2-19.42 2.68-25.84 41.43-33.64 67.81-84.85 67.81-142.34s-26.37-108.71-67.81-142.42c-7.87-6.42-9.02-17.96-2.68-25.84 6.34-7.87 17.96-9.02 25.84-2.68v.08zm-46.25 56.95c33.02 26.91 54.2 67.96 54.2 113.9s-21.18 86.99-54.2 113.9c-7.87 6.42-19.42 5.2-25.84-2.68-6.42-7.87-5.2-19.42 2.68-25.84 24.84-20.18 40.67-50.91 40.67-85.39s-15.82-65.21-40.67-85.47c-7.87-6.42-9.02-17.96-2.68-25.84 6.34-7.87 17.96-9.02 25.84-2.68v.08zm-46.25 56.95c16.44 13.45 27.06 33.94 27.06 56.95s-10.63 43.5-27.06 56.95c-7.87 6.42-19.42 5.2-25.84-2.68-6.42-7.87-5.2-19.42 2.68-25.84 8.26-6.73 13.53-16.97 13.53-28.44s-5.27-21.71-13.53-28.51c-7.87-6.42-9.02-17.96-2.68-25.84 6.34-7.87 17.96-9.02 25.84-2.68v.08zm-85.24-112.15c8.79 3.98 14.45 12.69 14.45 22.32v293.55c0 9.63-5.66 18.35-14.45 22.32-8.79 3.98-19.11 2.37-26.3-4.05L821.37 613.4h-51.83c-26.99 0-48.93-21.94-48.93-48.93v-48.93c0-26.99 21.94-48.93 48.93-48.93h51.83l103.12-91.66c7.19-6.42 17.51-7.95 26.3-4.05z" fill="#c0d7e8" stroke-width="0"/></svg>