<svg id="Layer_1" xmlns="http://www.w3.org/2000/svg" viewBox="0 0 1920 1080"><defs><linearGradient id="Rocky_Rapids_Gradient_Bg" x1="0" y1="540" x2="1920" y2="540" gradientUnits="userSpaceOnUse"><stop offset="0" stop-color="#d9e7f1"/><stop offset=".41" stop-color="#f9fbfd"/><stop offset=".64" stop-color="#f9fbfd"/><stop offset="1" stop-color="#d9e7f1"/></linearGradient><style>.cls-2{stroke-width:0;fill:#c0d7e8}</style></defs><path stroke-width="0" fill="url(#Rocky_Rapids_Gradient_Bg)" d="M0 0h1920v1080H0z"/><path class="cls-2" d="M659.23 484.83c-11.43 0-20.69 9.26-20.69 20.69s9.26 20.69 20.69 20.69 20.69-9.26 20.69-20.69-9.26-20.69-20.69-20.69z"/><path class="cls-2" d="M790.26 443.45H624.75c-15.21 0-27.58 12.37-27.58 27.58v137.92c0 15.21 12.37 27.58 27.58 27.58h165.51c15.21 0 27.58-12.37 27.58-27.58V471.03c0-15.21-12.37-27.58-27.58-27.58zm6.9 165.42l-2.16-2.8-58.62-75.86c-1.94-2.54-5-4.01-8.19-4.01s-6.21 1.47-8.19 4.01l-35.77 46.29-13.15-18.4c-1.94-2.72-5.04-4.31-8.4-4.31s-6.47 1.59-8.4 4.35l-34.48 48.27-1.94 2.67V471.03c0-3.79 3.1-6.9 6.9-6.9h165.51c3.79 0 6.9 3.1 6.9 6.9v137.84zM465.72 450.51c-4.53-4.53-10.67-7.05-17.08-7.05h-62.42c-13.31 0-24.14 10.82-24.14 24.14v144.82c0 13.31 10.82 24.14 24.14 24.14h96.55c13.31 0 24.14-10.82 24.14-24.14V501.73c0-6.41-2.53-12.56-7.05-17.08l-34.13-34.13zm23.08 161.9c0 3.32-2.72 6.03-6.03 6.03h-96.55c-3.32 0-6.03-2.72-6.03-6.03V467.59c0-3.32 2.72-6.03 6.03-6.03h60.34v30.17c0 6.68 5.39 12.07 12.07 12.07h30.17v108.62zM1462.01 508.59v-.04c-4.34-3.5-10.75-2.87-14.25 1.48s-2.87 10.71 1.48 14.26c4.55 3.75 7.46 9.4 7.46 15.73s-2.91 11.98-7.46 15.69c-4.34 3.54-5.02 9.91-1.48 14.26s9.91 5.02 14.25 1.48c9.07-7.42 14.93-18.73 14.93-31.42s-5.86-24-14.93-31.42z"/><path class="cls-2" d="M1487.53 477.17v-.04c-4.34-3.5-10.75-2.87-14.25 1.48s-2.87 10.71 1.48 14.26c13.71 11.18 22.44 28.13 22.44 47.15s-8.73 35.97-22.44 47.11c-4.34 3.54-5.02 9.91-1.48 14.26s9.91 5.02 14.25 1.48c18.22-14.85 29.9-37.49 29.9-62.84s-11.68-47.99-29.9-62.84zM1414.99 446.72c-4.85-2.15-10.54-1.31-14.51 2.24l-56.89 50.57H1315c-14.89 0-26.99 12.1-26.99 26.99v26.99c0 14.89 12.1 26.99 26.99 26.99h28.59l56.89 50.57c3.96 3.54 9.66 4.43 14.51 2.24 4.85-2.19 7.97-7 7.97-12.32V459.04c0-5.31-3.12-10.12-7.97-12.31z"/><path class="cls-2" d="M1513.04 445.75v-.04c-4.34-3.5-10.75-2.87-14.25 1.48s-2.87 10.71 1.48 14.26c22.86 18.6 37.41 46.86 37.41 78.57s-14.55 59.97-37.41 78.53c-4.34 3.54-5.02 9.91-1.48 14.26s9.91 5.02 14.25 1.48c27.37-22.27 44.87-56.22 44.87-94.26s-17.5-72.03-44.87-94.26zM1189.24 461.46a16.15 16.15 0 00-16.54.8l-48.27 32.18-7.14 4.78v81.56l7.14 4.78 48.27 32.18c4.98 3.32 11.31 3.62 16.54.8 5.23-2.82 8.5-8.25 8.5-14.18V475.63c0-5.93-3.27-11.36-8.5-14.18zM940.28 443.45h128.73c17.76 0 32.18 14.42 32.18 32.18v128.73c0 17.76-14.42 32.18-32.18 32.18H940.28c-17.76 0-32.18-14.42-32.18-32.18V475.63c0-17.76 14.42-32.18 32.18-32.18z"/></svg>