<svg id="Layer_1" xmlns="http://www.w3.org/2000/svg" viewBox="0 0 1920 1080"><defs><linearGradient id="Rocky_Rapids_Gradient_Bg" x1="0" y1="540" x2="1920" y2="540" gradientUnits="userSpaceOnUse"><stop offset="0" stop-color="#d9e7f1"/><stop offset=".41" stop-color="#f9fbfd"/><stop offset=".64" stop-color="#f9fbfd"/><stop offset="1" stop-color="#d9e7f1"/></linearGradient><style>.cls-2{stroke-width:0;fill:#c0d7e8}</style></defs><path stroke-width="0" fill="url(#Rocky_Rapids_Gradient_Bg)" d="M0 0h1920v1080H0z"/><path class="cls-2" d="M796.81 671.25v-262.5c0-6.02 4.92-10.94 10.94-10.94h109.38v54.69c0 12.1 9.78 21.88 21.88 21.88h54.69v98.44h32.81v-102.2c0-11.62-4.58-22.76-12.78-30.97l-61.87-61.87c-8.2-8.2-19.35-12.78-30.97-12.78H807.76c-24.13 0-43.75 19.62-43.75 43.75v262.5c0 24.13 19.62 43.75 43.75 43.75h32.81v-32.81h-32.81c-6.02 0-10.94-4.92-10.94-10.94z"/><path class="cls-2" d="M919.88 610.06h-43.95v101.81h27.64v-30.23h15.31c23.22 0 38.78-13.67 38.78-35.59s-15.16-35.99-37.78-35.99zm-6.56 50.11h-9.74v-28.04h9.74c9.69 0 15.51 5.17 15.51 13.92s-5.82 14.12-15.51 14.12zM1013.58 610.06H974.8v101.81h39.17c31.02 0 50.71-19.09 50.71-50.91s-19.69-50.91-51.1-50.91zm-.6 78.35h-10.54v-54.88h9.74c15.91 0 24.66 6.16 24.66 27.44s-8.75 27.44-23.86 27.44zM1156 632.33v-22.27h-71.58v101.81h27.64V672.1h39.57v-22.27h-39.57v-17.5H1156z"/></svg>