<svg xmlns="http://www.w3.org/2000/svg" viewBox="0 0 1920 1080"><defs><linearGradient id="a" x1="3.83" y1="540" x2="1923.83" y2="540" gradientUnits="userSpaceOnUse"><stop offset="0" stop-color="#d9e7f1"/><stop offset=".41" stop-color="#f9fbfd"/><stop offset=".64" stop-color="#f9fbfd"/><stop offset="1" stop-color="#d9e7f1"/></linearGradient></defs><path stroke-width="0" fill="url(#a)" d="M3.83 0h1920v1080H3.83z"/><path d="M1047.5 682.19c6.02 0 10.94-4.92 10.94-10.94V474.37h-54.69c-12.1 0-21.88-9.78-21.88-21.88V397.8H872.49c-6.02 0-10.94 4.92-10.94 10.94v262.5c0 6.02 4.92 10.94 10.94 10.94h175zM828.75 408.75c0-24.13 19.62-43.75 43.75-43.75h113.13c11.62 0 22.76 4.58 30.97 12.78l61.87 61.87c8.2 8.2 12.78 19.35 12.78 30.97v200.63c0 24.13-19.62 43.75-43.75 43.75h-175c-24.13 0-43.75-19.62-43.75-43.75v-262.5z" fill="#c0d7e8" stroke-width="0"/></svg>