<svg xmlns="http://www.w3.org/2000/svg" viewBox="0 0 1920 1080"><defs><linearGradient id="a" x1="0" y1="540" x2="1920" y2="540" gradientUnits="userSpaceOnUse"><stop offset="0" stop-color="#d9e7f1"/><stop offset=".41" stop-color="#f9fbfd"/><stop offset=".64" stop-color="#f9fbfd"/><stop offset="1" stop-color="#d9e7f1"/></linearGradient></defs><path stroke-width="0" fill="url(#a)" d="M0 0h1920v1080H0z"/><path d="M1110 402.5c6.87 0 12.5 5.62 12.5 12.5v249.84l-3.91-5.08-106.25-137.5c-3.52-4.61-9.06-7.27-14.84-7.27s-11.25 2.66-14.84 7.27l-64.84 83.91-23.83-33.36c-3.52-4.92-9.14-7.81-15.23-7.81s-11.72 2.89-15.23 7.89l-62.5 87.5-3.52 4.84V415c0-6.88 5.63-12.5 12.5-12.5h300zM810 365c-27.58 0-50 22.42-50 50v250c0 27.58 22.42 50 50 50h300c27.58 0 50-22.42 50-50V415c0-27.58-22.42-50-50-50H810zm62.5 150c20.71 0 37.5-16.79 37.5-37.5S893.21 440 872.5 440 835 456.79 835 477.5s16.79 37.5 37.5 37.5z" fill="#c0d7e8" stroke-width="0"/></svg>