<svg id="Layer_1" xmlns="http://www.w3.org/2000/svg" viewBox="0 0 1920 1080"><defs><linearGradient id="Rocky_Rapids_Gradient_Bg" x1="3.83" y1="540" x2="1923.83" y2="540" gradientUnits="userSpaceOnUse"><stop offset="0" stop-color="#d9e7f1"/><stop offset=".41" stop-color="#f9fbfd"/><stop offset=".64" stop-color="#f9fbfd"/><stop offset="1" stop-color="#d9e7f1"/></linearGradient><style>.cls-2{stroke-width:0;fill:#c0d7e8}</style></defs><path stroke-width="0" fill="url(#Rocky_Rapids_Gradient_Bg)" d="M3.83 0h1920v1080H3.83z"/><path class="cls-2" d="M1016.6 377.78c-8.2-8.2-19.35-12.78-30.97-12.78H872.5c-24.13 0-43.75 19.62-43.75 43.75v262.5c0 24.13 19.62 43.75 43.75 43.75h175c24.13 0 43.75-19.62 43.75-43.75V470.62c0-11.62-4.58-22.76-12.78-30.97l-61.87-61.87zm41.84 293.47c0 6.02-4.92 10.94-10.94 10.94h-175c-6.02 0-10.94-4.92-10.94-10.94v-262.5c0-6.02 4.92-10.94 10.94-10.94h109.38v54.69c0 12.1 9.78 21.88 21.88 21.88h54.69v196.88zM1427.15 439.65l-61.87-61.87c-8.2-8.2-19.35-12.78-30.97-12.78h-113.13c-24.13 0-43.75 19.62-43.75 43.75v262.5c0 24.13 19.62 43.75 43.75 43.75h175c24.13 0 43.75-19.62 43.75-43.75V470.62c0-11.62-4.58-22.76-12.78-30.97zm-20.03 231.6c0 6.02-4.92 10.94-10.94 10.94h-175c-6.02 0-10.94-4.92-10.94-10.94v-262.5c0-6.02 4.92-10.94 10.94-10.94h109.38v54.69c0 12.1 9.78 21.88 21.88 21.88h54.69v196.88zM667.92 377.78c-8.2-8.2-19.35-12.78-30.97-12.78H523.82c-24.13 0-43.75 19.62-43.75 43.75v262.5c0 24.13 19.62 43.75 43.75 43.75h175c24.13 0 43.75-19.62 43.75-43.75V470.62c0-11.62-4.58-22.76-12.78-30.97l-61.87-61.87zm41.84 293.47c0 6.02-4.92 10.94-10.94 10.94h-175c-6.02 0-10.94-4.92-10.94-10.94v-262.5c0-6.02 4.92-10.94 10.94-10.94H633.2v54.69c0 12.1 9.78 21.88 21.88 21.88h54.69v196.88z"/></svg>