<svg id="Layer_1" xmlns="http://www.w3.org/2000/svg" viewBox="0 0 1920 1080"><defs><linearGradient id="linear-gradient" x1="0" y1="540" x2="1920" y2="540" gradientUnits="userSpaceOnUse"><stop offset="0" stop-color="#e3bfc5"/><stop offset=".41" stop-color="#faf4f5"/><stop offset=".64" stop-color="#faf4f5"/><stop offset="1" stop-color="#e3bfc5"/></linearGradient><style>.cls-2{stroke-width:0;fill:#d1949e}</style></defs><path stroke-width="0" fill="url(#linear-gradient)" d="M0 0h1920v1080H0z"/><path class="cls-2" d="M760.51 550.43H589.8c-25.36 0-46 20.64-46 46v170.71c0 25.36 20.64 46 46 46h170.71c25.36 0 46-20.64 46-46V596.43c0-25.36-20.64-46-46-46zm16 216.71c0 8.82-7.18 16-16 16H589.8c-8.82 0-16-7.18-16-16V596.43c0-8.82 7.18-16 16-16h170.71c8.82 0 16 7.18 16 16v170.71zM1330.19 266.86h-170.71c-25.36 0-46 20.64-46 46v170.71c0 25.36 20.64 46 46 46h170.71c25.36 0 46-20.64 46-46V312.86c0-25.36-20.64-46-46-46zm16 216.71c0 8.82-7.18 16-16 16h-170.71c-8.82 0-16-7.18-16-16V312.86c0-8.82 7.18-16 16-16h170.71c8.82 0 16 7.18 16 16v170.71zM1045.35 266.86H874.64c-25.36 0-46 20.64-46 46v170.71c0 25.36 20.64 46 46 46h170.71c25.36 0 46-20.64 46-46V312.86c0-25.36-20.64-46-46-46zm16 216.71c0 8.82-7.18 16-16 16H874.64c-8.82 0-16-7.18-16-16V312.86c0-8.82 7.18-16 16-16h170.71c8.82 0 16 7.18 16 16v170.71zM1330.19 550.43h-170.71c-25.36 0-46 20.64-46 46v170.71c0 25.36 20.64 46 46 46h170.71c25.36 0 46-20.64 46-46V596.43c0-25.36-20.64-46-46-46zm16 216.71c0 8.82-7.18 16-16 16h-170.71c-8.82 0-16-7.18-16-16V596.43c0-8.82 7.18-16 16-16h170.71c8.82 0 16 7.18 16 16v170.71zM760.51 266.86H589.8c-25.36 0-46 20.64-46 46v170.71c0 25.36 20.64 46 46 46h170.71c25.36 0 46-20.64 46-46V312.86c0-25.36-20.64-46-46-46zm16 216.71c0 8.82-7.18 16-16 16H589.8c-8.82 0-16-7.18-16-16V312.86c0-8.82 7.18-16 16-16h170.71c8.82 0 16 7.18 16 16v170.71zM1045.35 550.43H874.64c-25.36 0-46 20.64-46 46v170.71c0 25.36 20.64 46 46 46h170.71c25.36 0 46-20.64 46-46V596.43c0-25.36-20.64-46-46-46zm16 216.71c0 8.82-7.18 16-16 16H874.64c-8.82 0-16-7.18-16-16V596.43c0-8.82 7.18-16 16-16h170.71c8.82 0 16 7.18 16 16v170.71z"/></svg>