<svg width="40" height="34" fill="none" xmlns="http://www.w3.org/2000/svg"><g clip-path="url(#clip0_1509_34390)" fill="#fff"><path d="M16.334 6.971c-.882 0-1.551-.015-1.753-.02a.407.407 0 01-.308-.658c.427-.537 4.221-5.268 5.738-5.976a3.33 3.33 0 012.561-.114c.841.305 1.513.92 1.892 1.731a3.355 3.355 0 01-1.617 4.454c-1.07.5-4.401.583-6.513.583zm-.904-.817c2.18.022 6.08-.038 7.074-.502a2.542 2.542 0 00-.208-4.687 2.521 2.521 0 00-1.942.087c-.993.464-3.541 3.415-4.924 5.101v.001z"/><path d="M28.532 12.94H16.88a.405.405 0 110-.811h11.247V6.952H.812v5.177h11.492a.405.405 0 110 .811H.405A.405.405 0 010 12.534V6.546c0-.224.182-.405.406-.405h28.126c.225 0 .406.182.406.405v5.988a.405.405 0 01-.405.406z"/><path d="M12.391 27.41a.405.405 0 01-.406-.406V6.697a.405.405 0 11.812 0v20.307a.405.405 0 01-.406.406zm4.156 0a.405.405 0 01-.405-.406V6.697a.405.405 0 11.81 0v20.307a.405.405 0 01-.405.406z"/><path d="M13.553 4.647a74.979 74.979 0 011.227 1.255.405.405 0 01-.249.683c-.682.077-6.71.74-8.283.169a3.33 3.33 0 01-1.892-1.731 3.326 3.326 0 01-.113-2.562A3.355 3.355 0 018.536.455c1.11.403 3.525 2.699 5.018 4.192h-.001zm.062 1.218c-1.527-1.558-4.326-4.273-5.357-4.647a2.54 2.54 0 00-3.167 3.46 2.52 2.52 0 001.433 1.311c1.03.375 4.92.09 7.09-.125zm13.442 9.117v-2.354a.405.405 0 10-.81 0v2.715a9.65 9.65 0 01.811-.36zm-5.855 11.854H2.692V12.628a.405.405 0 10-.81 0v14.614c0 .225.182.405.405.405h19.19a9.763 9.763 0 01-.275-.812v.001z"/><path d="M30.606 14.815a9.394 9.394 0 100 18.787 9.394 9.394 0 000-18.787zm-.05 17.992a8.549 8.549 0 01-8.549-8.549 8.549 8.549 0 018.55-8.549 8.548 8.548 0 018.548 8.549 8.548 8.548 0 01-8.548 8.549z"/><path d="M30.836 28.217v1.078h-.334v-1.078c-1.61-.063-2.625-1.03-2.625-2.473h.382c0 1.287.97 2.103 2.415 2.103 1.313 0 2.245-.76 2.245-1.873 0-1.248-1.112-1.503-2.296-1.754-1.234-.263-2.577-.548-2.577-2.048 0-1.242.942-2.052 2.397-2.11v-1.017h.343v1.019c1.407.066 2.307.938 2.307 2.291h-.376c0-1.195-.848-1.928-2.112-1.928-1.263 0-2.18.684-2.18 1.733 0 1.198 1.124 1.427 2.293 1.69 1.258.275 2.583.573 2.583 2.12 0 1.29-.997 2.184-2.464 2.246l-.001.001z"/><path d="M31.134 29.593h-.93v-1.098c-1.605-.171-2.625-1.226-2.625-2.75v-.299h.978v.298c0 1.114.812 1.805 2.117 1.805 1.165 0 1.947-.633 1.947-1.574 0-.942-.778-1.191-2.06-1.462-1.257-.269-2.813-.6-2.813-2.34 0-1.314.93-2.227 2.397-2.385v-1.04h.94v1.044c1.41.177 2.306 1.159 2.306 2.566v.298h-.972v-.298c0-1.006-.694-1.63-1.814-1.63s-1.882.563-1.882 1.435c0 .871.756 1.105 1.989 1.382l.071.016c1.254.275 2.815.617 2.815 2.413 0 1.367-.978 2.352-2.464 2.52v1.1z"/></g><defs><clipPath id="clip0_1509_34390"><path fill="#fff" d="M0 0h40v33.601H0z"/></clipPath></defs></svg>