<?xml version="1.0" encoding="UTF-8"?><svg id="Layer_1" xmlns="http://www.w3.org/2000/svg" viewBox="0 0 40 36.77"><defs><style>.cls-1{fill:#2c2f32;stroke-width:0px;}</style></defs><path class="cls-1" d="m35.72,36.77H4.28v-18.74c0-.9.73-1.62,1.62-1.62s1.62.73,1.62,1.62v15.49h24.94v-15.49c0-.9.73-1.62,1.62-1.62s1.62.73,1.62,1.62v18.74ZM2.48,14.88L20.24,3.84l17.26,11.03c.75.48,1.76.26,2.24-.49.48-.76.26-1.76-.49-2.24L20.26,0,.77,12.12C0,12.59-.23,13.59.25,14.36c.31.49.84.77,1.38.77.29,0,.59-.08.86-.25Z"/></svg>