<?xml version="1.0" encoding="UTF-8"?><svg id="Layer_1" xmlns="http://www.w3.org/2000/svg" viewBox="0 0 50.01 50"><defs><style>.cls-1{fill:#fadf54;stroke-width:0px;}</style></defs><path class="cls-1" d="m25.01,12.18c-7.1,0-12.82,5.72-12.82,12.82s5.72,12.82,12.82,12.82,12.82-5.72,12.82-12.82-5.72-12.82-12.82-12.82Zm0,21.15c-4.59,0-8.33-3.74-8.33-8.33s3.74-8.33,8.33-8.33,8.33,3.74,8.33,8.33-3.75,8.33-8.33,8.33h0Zm16.33-21.68c0,1.66-1.34,2.99-2.99,2.99s-2.99-1.34-2.99-2.99,1.34-2.99,2.99-2.99,2.99,1.34,2.99,2.99Zm8.49,3.03c-.19-4.01-1.1-7.55-4.04-10.48-2.92-2.92-6.47-3.84-10.48-4.04C31.19-.06,18.82-.06,14.69.18c-3.99.19-7.54,1.1-10.48,4.03S.38,10.67.18,14.68C-.06,18.81-.06,31.18.18,35.31c.19,4.01,1.1,7.55,4.04,10.48,2.93,2.92,6.47,3.84,10.48,4.04,4.13.23,16.5.23,20.63,0,4.01-.19,7.55-1.1,10.48-4.04,2.92-2.92,3.84-6.47,4.04-10.48.23-4.13.23-16.49,0-20.62h0Zm-5.33,25.05c-.87,2.19-2.55,3.87-4.75,4.75-3.29,1.31-11.1,1-14.74,1s-11.46.29-14.74-1c-2.19-.87-3.87-2.55-4.75-4.75-1.31-3.29-1-11.1-1-14.74s-.29-11.46,1-14.74c.87-2.19,2.55-3.87,4.75-4.75,3.29-1.31,11.1-1,14.74-1s11.46-.29,14.74,1c2.19.87,3.87,2.55,4.75,4.75,1.31,3.29,1,11.1,1,14.74s.3,11.46-1,14.74Z"/></svg>