<?xml version="1.0" encoding="UTF-8"?><svg id="Layer_1" xmlns="http://www.w3.org/2000/svg" viewBox="0 0 40 40"><defs><style>.cls-1{fill:#15181b;stroke-width:0px;}</style></defs><path class="cls-1" d="m14.87,25.16c-5.69,0-10.29-4.6-10.29-10.29S9.17,4.57,14.87,4.57s10.29,4.6,10.29,10.29-4.6,10.29-10.29,10.29Zm13.72,0h-1.81l-.64-.62c2.24-2.61,3.59-5.99,3.59-9.67C29.73,6.66,23.08,0,14.87,0S0,6.66,0,14.87s6.66,14.87,14.87,14.87c3.68,0,7.07-1.35,9.67-3.59l.62.64v1.81l11.44,11.41,3.41-3.41-11.41-11.44Z"/></svg>