<?xml version="1.0" encoding="UTF-8"?><svg id="Layer_1" xmlns="http://www.w3.org/2000/svg" xmlns:xlink="http://www.w3.org/1999/xlink" viewBox="0 0 40 40"><defs><style>.cls-1{fill:#8a8b8d;stroke-width:0px;}</style><symbol id="Search_2" viewBox="0 0 17.49 17.49"><path class="cls-1" d="m6.5,11c-2.49,0-4.5-2.01-4.5-4.5S4.01,2,6.5,2s4.5,2.01,4.5,4.5-2.01,4.5-4.5,4.5Zm6,0h-.79l-.28-.27c.98-1.14,1.57-2.62,1.57-4.23,0-3.59-2.91-6.5-6.5-6.5S0,2.91,0,6.5s2.91,6.5,6.5,6.5c1.61,0,3.09-.59,4.23-1.57l.27.28v.79l5,4.99,1.49-1.49-4.99-5Z"/></symbol></defs><use width="17.49" height="17.49" transform="translate(0 0) scale(2.29)" xlink:href="#Search_2"/></svg>