<?xml version="1.0" encoding="UTF-8"?><svg id="Layer_1" xmlns="http://www.w3.org/2000/svg" viewBox="0 0 61.56 50"><defs><style>.cls-1{fill:#fadf54;stroke-width:0px;}</style></defs><path class="cls-1" d="m55.23,12.46c.04.55.04,1.09.04,1.64,0,16.68-12.7,35.9-35.9,35.9C12.23,50,5.59,47.93,0,44.34c1.02.12,1.99.16,3.05.16,5.9,0,11.33-1.99,15.66-5.39-5.55-.12-10.2-3.75-11.8-8.75.78.12,1.56.2,2.38.2,1.13,0,2.27-.16,3.32-.43-5.78-1.17-10.12-6.25-10.12-12.38v-.16c1.68.94,3.63,1.52,5.7,1.6-3.4-2.27-5.62-6.13-5.62-10.51,0-2.34.62-4.49,1.72-6.37,6.21,7.66,15.55,12.66,26.02,13.2-.2-.94-.31-1.91-.31-2.89,0-6.95,5.63-12.62,12.62-12.62,3.63,0,6.91,1.52,9.22,3.98,2.85-.55,5.59-1.6,8.01-3.05-.94,2.93-2.93,5.39-5.55,6.95,2.54-.27,5-.98,7.27-1.95-1.72,2.5-3.87,4.73-6.33,6.52h0Z"/></svg>