<?xml version="1.0" encoding="UTF-8"?><svg id="Layer_1" xmlns="http://www.w3.org/2000/svg" viewBox="0 0 71.11 50"><defs><style>.cls-1{fill:#fadf54;stroke-width:0px;}</style></defs><path class="cls-1" d="m69.63,7.82c-.82-3.08-3.23-5.5-6.29-6.33-5.55-1.5-27.78-1.5-27.78-1.5,0,0-22.24,0-27.78,1.5-3.06.82-5.47,3.25-6.29,6.33C0,13.4,0,25.05,0,25.05,0,25.05,0,36.7,1.49,42.28c.82,3.08,3.23,5.4,6.29,6.23,5.55,1.5,27.78,1.5,27.78,1.5,0,0,22.24,0,27.78-1.5,3.06-.82,5.47-3.15,6.29-6.23,1.49-5.58,1.49-17.23,1.49-17.23,0,0,0-11.65-1.49-17.23Zm-41.34,27.8V14.48l18.59,10.57-18.59,10.57h0Z"/></svg>